<svg data-v-3817a430="" data-v-029851c4="" width="42" height="123" viewBox="0 0 42 123" fill="none" xmlns="http://www.w3.org/2000/svg" xmlns:xlink="http://www.w3.org/1999/xlink"><g data-v-3817a430="" filter="url(#filter0_d_638_4575)"><path data-v-3817a430="" d="M0.666748 78.0623C0.666748 78.0623 6.33341 76.0623 16.0001 76.0623C25.6667 76.0623 31.3334 78.0623 31.3334 78.0623V79.0623H0.666748V78.0623Z" fill="#302F2F"></path><path data-v-3817a430="" d="M13.6001 1.6C13.6001 0.716344 14.3164 0 15.2001 0V0C16.0838 0 16.8001 0.716344 16.8001 1.6V9H13.6001V1.6Z" fill="#A8A8A8"></path><rect data-v-3817a430="" width="1.21686" height="6.53872" transform="matrix(-1 0 0 1 14.8171 1.46118)" fill="url(#paint0_linear_638_4575)"></rect><rect data-v-3817a430="" x="15.5833" y="1.46118" width="1.21686" height="6.53872" fill="url(#paint1_linear_638_4575)"></rect><path data-v-3817a430="" d="M6.3999 34C6.3999 32.8954 7.29533 32 8.3999 32H22.7999C23.9045 32 24.7999 32.8954 24.7999 34V62.9934H6.3999V34Z" fill="#D9D9D9"></path><path data-v-3817a430="" d="M1.3335 73H30.6668V115H1.3335V73Z" fill="url(#paint2_linear_638_4575)"></path><path data-v-3817a430="" d="M5.92289 68.9875C7.58955 68.9875 23.3846 69.0013 25.3846 69.0012C28.718 69.0012 30.6668 72.9998 30.6668 72.9998H1.3335C2.86196 70.7073 3.58174 68.9875 5.92289 68.9875Z" fill="url(#paint3_angular_638_4575)"></path><path data-v-3817a430="" d="M5.92289 68.9875C7.58955 68.9875 23.3846 69.0013 25.3846 69.0012C28.718 69.0012 30.6668 72.9998 30.6668 72.9998H1.3335C2.86196 70.7073 3.58174 68.9875 5.92289 68.9875Z" fill="url(#pattern0)" fill-opacity="0.2" style="mix-blend-mode: multiply;"></path><path data-v-3817a430="" d="M12.8 8C12.8 7.44772 13.2478 7 13.8 7H16.6C17.1523 7 17.6 7.44772 17.6 8V24H12.8V8Z" fill="#3F3E3D"></path><mask data-v-3817a430="" id="mask0_638_4575" maskUnits="userSpaceOnUse" x="12" y="7" width="6" height="17" style="mask-type: alpha;"><path data-v-3817a430="" d="M12.8 8.12652C12.8 7.52723 13.3237 7.06201 13.921 7.11002C14.3328 7.14311 14.7903 7.17081 15.1677 7.17081C15.5592 7.17081 16.0481 7.14101 16.4846 7.1063C17.08 7.05896 17.6 7.52351 17.6 8.12076V24H12.8V8.12652Z" fill="#3F3E3D"></path></mask><g data-v-3817a430="" mask="url(#mask0_638_4575)"><g data-v-3817a430="" filter="url(#filter1_f_638_4575)"><rect data-v-3817a430="" x="16.2288" y="6.26099" width="1.37143" height="5.91304" fill="#6F6F6F"></rect></g><g data-v-3817a430="" filter="url(#filter2_f_638_4575)"><rect data-v-3817a430="" x="16.2288" y="13.0132" width="1.37143" height="10.9869" fill="#6F6F6F"></rect></g><g data-v-3817a430="" filter="url(#filter3_f_638_4575)"><rect data-v-3817a430="" x="12.8" y="6.26086" width="1.37143" height="5.91304" fill="#8F8F8F"></rect></g><g data-v-3817a430="" filter="url(#filter4_f_638_4575)"><rect data-v-3817a430="" x="12.8" y="13.0132" width="1.37143" height="10.9869" fill="#8F8F8F"></rect></g></g><path data-v-3817a430="" d="M12.8 12.5936C12.8 12.5936 14.1369 12.5936 15.0837 12.5936C16.0304 12.5936 17.6 12.5936 17.6 12.5936V13.3328C17.6 13.3328 16.0304 13.3328 15.0837 13.3328C14.1369 13.3328 12.8 13.3328 12.8 13.3328V12.5936Z" fill="#929292"></path><path data-v-3817a430="" d="M12.8 12.1743C12.8 12.1743 14.0968 12.1744 15.0436 12.1744C15.9904 12.1744 17.6 12.1743 17.6 12.1743V12.9134C17.6 12.9134 15.9904 12.9135 15.0436 12.9135C14.0968 12.9135 12.8 12.9134 12.8 12.9134V12.1743Z" fill="#353535"></path><rect data-v-3817a430="" x="8" y="27" width="15.3333" height="5" fill="url(#paint4_linear_638_4575)"></rect><rect data-v-3817a430="" x="8" y="27" width="15.3333" height="5" fill="url(#pattern1)" fill-opacity="0.5" style="mix-blend-mode: multiply;"></rect><rect data-v-3817a430="" x="8" y="31" width="15.3333" height="1" fill="black" fill-opacity="0.55"></rect><path data-v-3817a430="" d="M10.3334 24.5001C12.3334 23.0005 18.6667 23.0006 20.6667 24.5C22.6667 25.9994 23.3336 26.9992 23.3336 26.9992H8.00024C8.00024 26.9992 8.33341 25.9997 10.3334 24.5001Z" fill="url(#paint5_angular_638_4575)"></path><path data-v-3817a430="" d="M6.36346 33.9628C6.38374 32.8729 7.27305 32 8.36312 32H22.8428C23.9305 32 24.8188 32.8693 24.8423 33.9568L25.2 50.5L25.4538 62.6211L24.9733 62.9922L25.5424 68.4481C25.5732 68.7432 25.3418 69 25.0451 69H6.257C5.96378 69 5.73349 68.7488 5.75888 68.4567L6.23505 62.9766L5.73505 62.5938L6.05582 50.5L6.36346 33.9628Z" fill="black" fill-opacity="0.76"></path><path data-v-3817a430="" d="M6.36346 33.9628C6.38374 32.8729 7.27305 32 8.36312 32H22.8428C23.9305 32 24.8188 32.8693 24.8423 33.9568L25.2 50.5L25.4538 62.6211L24.9733 62.9922L25.5424 68.4481C25.5732 68.7432 25.3418 69 25.0451 69H6.257C5.96378 69 5.73349 68.7488 5.75888 68.4567L6.23505 62.9766L5.73505 62.5938L6.05582 50.5L6.36346 33.9628Z" fill="url(#pattern2)" fill-opacity="0.5" style="mix-blend-mode: multiply;"></path><mask data-v-3817a430="" id="mask1_638_4575" maskUnits="userSpaceOnUse" x="5" y="62" width="21" height="7" style="mask-type: alpha;"><path data-v-3817a430="" d="M5.73096 63.4934C5.73096 63.2173 5.95482 62.9934 6.23096 62.9934H25.031C25.3071 62.9934 25.531 63.2173 25.531 63.4934V68.4934C25.531 68.7696 25.3071 68.9934 25.031 68.9934H6.23097C5.95483 68.9934 5.73097 68.7696 5.73097 68.4934L5.73096 63.4934Z" fill="#D9D9D9"></path></mask><g data-v-3817a430="" mask="url(#mask1_638_4575)"><rect data-v-3817a430="" x="5.19995" y="63" width="21" height="6" fill="#A8A8A8"></rect></g><path data-v-3817a430="" d="M0.0293859 79.0518C0.0298536 78.4797 0.504652 78.024 1.07612 78.0512C3.7542 78.1787 10.9996 78.5 16 78.5C21.0004 78.5 28.2458 78.1787 30.9239 78.0512C31.4953 78.024 31.9701 78.4797 31.9706 79.0518L32 115H0L0.0293859 79.0518Z" fill="#373737"></path><path data-v-3817a430="" d="M0.0293859 79.0518C0.0298536 78.4797 0.504652 78.024 1.07612 78.0512C3.7542 78.1787 10.9996 78.5 16 78.5C21.0004 78.5 28.2458 78.1787 30.9239 78.0512C31.4953 78.024 31.9701 78.4797 31.9706 79.0518L32 115H0L0.0293859 79.0518Z" fill="url(#pattern3)" fill-opacity="0.6" style="mix-blend-mode: multiply;"></path><mask data-v-3817a430="" id="mask2_638_4575" maskUnits="userSpaceOnUse" x="5" y="32" width="21" height="37" style="mask-type: alpha;"><path data-v-3817a430="" d="M6.35753 33.9566C6.38115 32.8692 7.26941 32 8.35706 32H22.8424C23.9303 32 24.8187 32.8695 24.842 33.9572L25.4559 62.6235L24.9828 62.9894L25.0632 62.9985C25.3146 63.0271 25.505 63.2389 25.5068 63.4918L25.5416 68.4931C25.5434 68.7486 25.3522 68.9644 25.0983 68.9933L25.0399 69H6.22336L6.10549 68.9684C5.887 68.9097 5.73511 68.7117 5.73511 68.4855V63.4844C5.73511 63.2082 5.95896 62.9844 6.23511 62.9844H6.24214L5.73511 62.6049L6.35753 33.9566Z" fill="white"></path></mask><g data-v-3817a430="" mask="url(#mask2_638_4575)"><g data-v-3817a430="" filter="url(#filter5_f_638_4575)"><rect data-v-3817a430="" x="7.08154" y="32" width="5.45185" height="37" fill="white" fill-opacity="0.4"></rect></g><g data-v-3817a430="" filter="url(#filter6_f_638_4575)"><rect data-v-3817a430="" x="18.6665" y="32" width="5.45185" height="37" fill="white" fill-opacity="0.22"></rect></g><g data-v-3817a430="" filter="url(#filter7_f_638_4575)"><rect data-v-3817a430="" x="6.3999" y="32" width="18.4" height="1.23333" fill="white" fill-opacity="0.49"></rect></g><g data-v-3817a430="" filter="url(#filter8_f_638_4575)"><rect data-v-3817a430="" x="18.6665" y="32" width="4.77037" height="1.23333" fill="white" fill-opacity="0.44"></rect></g><g data-v-3817a430="" filter="url(#filter9_f_638_4575)"><rect data-v-3817a430="" x="12.5332" y="32" width="6.13333" height="1.23333" fill="#505050" fill-opacity="0.33"></rect></g><rect data-v-3817a430="" x="5.2688" y="68" width="20.7968" height="1" fill="black" fill-opacity="0.23"></rect><rect data-v-3817a430="" x="5.2688" y="68" width="20.7968" height="1" fill="url(#pattern4)" fill-opacity="0.5" style="mix-blend-mode: multiply;"></rect><rect data-v-3817a430="" x="5.6001" y="62.5979" width="19.9999" height="0.395437" fill="black" fill-opacity="0.23"></rect><rect data-v-3817a430="" x="5.6001" y="62.5979" width="19.9999" height="0.395437" fill="url(#pattern5)" fill-opacity="0.5" style="mix-blend-mode: multiply;"></rect><g data-v-3817a430="" filter="url(#filter10_f_638_4575)"><rect data-v-3817a430="" x="2.03833" y="32" width="5.45185" height="37" fill="#A5A5A5" fill-opacity="0.57"></rect></g><g data-v-3817a430="" filter="url(#filter11_f_638_4575)"><rect data-v-3817a430="" x="24.1184" y="32" width="5.45185" height="37" fill="#A5A5A5" fill-opacity="0.57"></rect></g></g><mask data-v-3817a430="" id="mask3_638_4575" maskUnits="userSpaceOnUse" x="1" y="73" width="30" height="42" style="mask-type: alpha;"><path data-v-3817a430="" d="M1.3335 73H30.6668V115H1.3335V73Z" fill="url(#paint6_linear_638_4575)"></path></mask><g data-v-3817a430="" mask="url(#mask3_638_4575)"><g data-v-3817a430="" filter="url(#filter12_f_638_4575)"><rect data-v-3817a430="" x="1.3335" y="72" width="29.3333" height="1.37946" fill="white" fill-opacity="0.53"></rect></g></g><mask data-v-3817a430="" id="mask4_638_4575" maskUnits="userSpaceOnUse" x="0" y="78" width="32" height="37" style="mask-type: alpha;"><path data-v-3817a430="" d="M0.0293859 79.0518C0.0298536 78.4797 0.504652 78.024 1.07612 78.0512C3.7542 78.1787 10.9996 78.5 16 78.5C21.0004 78.5 28.2458 78.1787 30.9239 78.0512C31.4953 78.024 31.9701 78.4797 31.9706 79.0518L32 115H0L0.0293859 79.0518Z" fill="black"></path></mask><g data-v-3817a430="" mask="url(#mask4_638_4575)"><g data-v-3817a430="" filter="url(#filter13_f_638_4575)"><rect data-v-3817a430="" x="-2.3999" y="74" width="4.17391" height="43" fill="white" fill-opacity="0.44"></rect></g><g data-v-3817a430="" filter="url(#filter14_f_638_4575)"><rect data-v-3817a430="" x="4.80005" y="73" width="7.2" height="43" fill="#242424" fill-opacity="0.42"></rect></g><g data-v-3817a430="" filter="url(#filter15_f_638_4575)"><rect data-v-3817a430="" x="24.8" y="72" width="11.2" height="43" fill="white" fill-opacity="0.18"></rect></g><g data-v-3817a430="" filter="url(#filter16_f_638_4575)"><rect data-v-3817a430="" x="6.3999" y="72.5" width="8.7998" height="43" fill="white" fill-opacity="0.19"></rect></g><g data-v-3817a430="" filter="url(#filter17_f_638_4575)"><rect data-v-3817a430="" y="77" width="32" height="2" fill="#B4B4B4" fill-opacity="0.63"></rect></g><g data-v-3817a430="" filter="url(#filter18_f_638_4575)"><rect data-v-3817a430="" x="30.3999" y="74" width="4.17391" height="43" fill="black" fill-opacity="0.35"></rect></g></g></g><defs data-v-3817a430=""><filter data-v-3817a430="" id="filter0_d_638_4575" x="0" y="0" width="42" height="123" filterUnits="userSpaceOnUse" color-interpolation-filters="sRGB"><feFlood data-v-3817a430="" flood-opacity="0" result="BackgroundImageFix"></feFlood><feColorMatrix data-v-3817a430="" in="SourceAlpha" type="matrix" values="0 0 0 0 0 0 0 0 0 0 0 0 0 0 0 0 0 0 127 0" result="hardAlpha"></feColorMatrix><feOffset data-v-3817a430="" dx="8" dy="6"></feOffset><feGaussianBlur data-v-3817a430="" stdDeviation="1"></feGaussianBlur><feComposite data-v-3817a430="" in2="hardAlpha" operator="out"></feComposite><feColorMatrix data-v-3817a430="" type="matrix" values="0 0 0 0 0 0 0 0 0 0 0 0 0 0 0 0 0 0 0.1 0"></feColorMatrix><feBlend data-v-3817a430="" mode="normal" in2="BackgroundImageFix" result="effect1_dropShadow_638_4575"></feBlend><feBlend data-v-3817a430="" mode="normal" in="SourceGraphic" in2="effect1_dropShadow_638_4575" result="shape"></feBlend></filter><pattern data-v-3817a430="" id="pattern0" patternContentUnits="objectBoundingBox" width="1" height="1"><use data-v-3817a430="" xlink:href="#image0_638_4575" transform="translate(-0.12944 -10.6832) scale(0.00217602 0.023863)"></use></pattern><filter data-v-3817a430="" id="filter1_f_638_4575" x="15.2288" y="5.26099" width="3.37134" height="7.91309" filterUnits="userSpaceOnUse" color-interpolation-filters="sRGB"><feFlood data-v-3817a430="" flood-opacity="0" result="BackgroundImageFix"></feFlood><feBlend data-v-3817a430="" mode="normal" in="SourceGraphic" in2="BackgroundImageFix" result="shape"></feBlend><feGaussianBlur data-v-3817a430="" stdDeviation="0.5" result="effect1_foregroundBlur_638_4575"></feGaussianBlur></filter><filter data-v-3817a430="" id="filter2_f_638_4575" x="15.2288" y="12.0132" width="3.37134" height="12.9868" filterUnits="userSpaceOnUse" color-interpolation-filters="sRGB"><feFlood data-v-3817a430="" flood-opacity="0" result="BackgroundImageFix"></feFlood><feBlend data-v-3817a430="" mode="normal" in="SourceGraphic" in2="BackgroundImageFix" result="shape"></feBlend><feGaussianBlur data-v-3817a430="" stdDeviation="0.5" result="effect1_foregroundBlur_638_4575"></feGaussianBlur></filter><filter data-v-3817a430="" id="filter3_f_638_4575" x="11.8" y="5.26086" width="3.37134" height="7.91309" filterUnits="userSpaceOnUse" color-interpolation-filters="sRGB"><feFlood data-v-3817a430="" flood-opacity="0" result="BackgroundImageFix"></feFlood><feBlend data-v-3817a430="" mode="normal" in="SourceGraphic" in2="BackgroundImageFix" result="shape"></feBlend><feGaussianBlur data-v-3817a430="" stdDeviation="0.5" result="effect1_foregroundBlur_638_4575"></feGaussianBlur></filter><filter data-v-3817a430="" id="filter4_f_638_4575" x="11.8" y="12.0132" width="3.37134" height="12.9868" filterUnits="userSpaceOnUse" color-interpolation-filters="sRGB"><feFlood data-v-3817a430="" flood-opacity="0" result="BackgroundImageFix"></feFlood><feBlend data-v-3817a430="" mode="normal" in="SourceGraphic" in2="BackgroundImageFix" result="shape"></feBlend><feGaussianBlur data-v-3817a430="" stdDeviation="0.5" result="effect1_foregroundBlur_638_4575"></feGaussianBlur></filter><pattern data-v-3817a430="" id="pattern1" patternContentUnits="objectBoundingBox" width="1" height="1"><use data-v-3817a430="" xlink:href="#image0_638_4575" transform="translate(0 -1.67416) scale(0.00151976 0.00466059)"></use></pattern><pattern data-v-3817a430="" id="pattern2" patternContentUnits="objectBoundingBox" width="1" height="1"><use data-v-3817a430="" xlink:href="#image0_638_4575" transform="translate(-1.17479 -0.246936) scale(0.00977983 0.00657109)"></use></pattern><pattern data-v-3817a430="" id="pattern3" patternContentUnits="objectBoundingBox" width="1" height="1"><use data-v-3817a430="" xlink:href="#image0_638_4575" transform="translate(-1.22637 -0.207094) scale(0.0160084 0.00691249)"></use></pattern><filter data-v-3817a430="" id="filter5_f_638_4575" x="3.08154" y="28" width="13.4519" height="45" filterUnits="userSpaceOnUse" color-interpolation-filters="sRGB"><feFlood data-v-3817a430="" flood-opacity="0" result="BackgroundImageFix"></feFlood><feBlend data-v-3817a430="" mode="normal" in="SourceGraphic" in2="BackgroundImageFix" result="shape"></feBlend><feGaussianBlur data-v-3817a430="" stdDeviation="2" result="effect1_foregroundBlur_638_4575"></feGaussianBlur></filter><filter data-v-3817a430="" id="filter6_f_638_4575" x="14.6665" y="28" width="13.4519" height="45" filterUnits="userSpaceOnUse" color-interpolation-filters="sRGB"><feFlood data-v-3817a430="" flood-opacity="0" result="BackgroundImageFix"></feFlood><feBlend data-v-3817a430="" mode="normal" in="SourceGraphic" in2="BackgroundImageFix" result="shape"></feBlend><feGaussianBlur data-v-3817a430="" stdDeviation="2" result="effect1_foregroundBlur_638_4575"></feGaussianBlur></filter><filter data-v-3817a430="" id="filter7_f_638_4575" x="5.3999" y="31" width="20.3999" height="3.23328" filterUnits="userSpaceOnUse" color-interpolation-filters="sRGB"><feFlood data-v-3817a430="" flood-opacity="0" result="BackgroundImageFix"></feFlood><feBlend data-v-3817a430="" mode="normal" in="SourceGraphic" in2="BackgroundImageFix" result="shape"></feBlend><feGaussianBlur data-v-3817a430="" stdDeviation="0.5" result="effect1_foregroundBlur_638_4575"></feGaussianBlur></filter><filter data-v-3817a430="" id="filter8_f_638_4575" x="16.6665" y="30" width="8.77026" height="5.23328" filterUnits="userSpaceOnUse" color-interpolation-filters="sRGB"><feFlood data-v-3817a430="" flood-opacity="0" result="BackgroundImageFix"></feFlood><feBlend data-v-3817a430="" mode="normal" in="SourceGraphic" in2="BackgroundImageFix" result="shape"></feBlend><feGaussianBlur data-v-3817a430="" stdDeviation="1" result="effect1_foregroundBlur_638_4575"></feGaussianBlur></filter><filter data-v-3817a430="" id="filter9_f_638_4575" x="10.5332" y="30" width="10.1333" height="5.23328" filterUnits="userSpaceOnUse" color-interpolation-filters="sRGB"><feFlood data-v-3817a430="" flood-opacity="0" result="BackgroundImageFix"></feFlood><feBlend data-v-3817a430="" mode="normal" in="SourceGraphic" in2="BackgroundImageFix" result="shape"></feBlend><feGaussianBlur data-v-3817a430="" stdDeviation="1" result="effect1_foregroundBlur_638_4575"></feGaussianBlur></filter><pattern data-v-3817a430="" id="pattern4" patternContentUnits="objectBoundingBox" width="1" height="1"><use data-v-3817a430="" xlink:href="#image0_638_4575" transform="translate(0 -14.2442) scale(0.00151976 0.0316061)"></use></pattern><pattern data-v-3817a430="" id="pattern5" patternContentUnits="objectBoundingBox" width="1" height="1"><use data-v-3817a430="" xlink:href="#image0_638_4575" transform="translate(0 -35.3572) scale(0.00151976 0.0768644)"></use></pattern><filter data-v-3817a430="" id="filter10_f_638_4575" x="-1.96167" y="28" width="13.4519" height="45" filterUnits="userSpaceOnUse" color-interpolation-filters="sRGB"><feFlood data-v-3817a430="" flood-opacity="0" result="BackgroundImageFix"></feFlood><feBlend data-v-3817a430="" mode="normal" in="SourceGraphic" in2="BackgroundImageFix" result="shape"></feBlend><feGaussianBlur data-v-3817a430="" stdDeviation="2" result="effect1_foregroundBlur_638_4575"></feGaussianBlur></filter><filter data-v-3817a430="" id="filter11_f_638_4575" x="20.1184" y="28" width="13.4519" height="45" filterUnits="userSpaceOnUse" color-interpolation-filters="sRGB"><feFlood data-v-3817a430="" flood-opacity="0" result="BackgroundImageFix"></feFlood><feBlend data-v-3817a430="" mode="normal" in="SourceGraphic" in2="BackgroundImageFix" result="shape"></feBlend><feGaussianBlur data-v-3817a430="" stdDeviation="2" result="effect1_foregroundBlur_638_4575"></feGaussianBlur></filter><filter data-v-3817a430="" id="filter12_f_638_4575" x="-0.666504" y="70" width="33.3333" height="5.37952" filterUnits="userSpaceOnUse" color-interpolation-filters="sRGB"><feFlood data-v-3817a430="" flood-opacity="0" result="BackgroundImageFix"></feFlood><feBlend data-v-3817a430="" mode="normal" in="SourceGraphic" in2="BackgroundImageFix" result="shape"></feBlend><feGaussianBlur data-v-3817a430="" stdDeviation="1" result="effect1_foregroundBlur_638_4575"></feGaussianBlur></filter><filter data-v-3817a430="" id="filter13_f_638_4575" x="-6.3999" y="70" width="12.1738" height="51" filterUnits="userSpaceOnUse" color-interpolation-filters="sRGB"><feFlood data-v-3817a430="" flood-opacity="0" result="BackgroundImageFix"></feFlood><feBlend data-v-3817a430="" mode="normal" in="SourceGraphic" in2="BackgroundImageFix" result="shape"></feBlend><feGaussianBlur data-v-3817a430="" stdDeviation="2" result="effect1_foregroundBlur_638_4575"></feGaussianBlur></filter><filter data-v-3817a430="" id="filter14_f_638_4575" x="0.800049" y="69" width="15.2" height="51" filterUnits="userSpaceOnUse" color-interpolation-filters="sRGB"><feFlood data-v-3817a430="" flood-opacity="0" result="BackgroundImageFix"></feFlood><feBlend data-v-3817a430="" mode="normal" in="SourceGraphic" in2="BackgroundImageFix" result="shape"></feBlend><feGaussianBlur data-v-3817a430="" stdDeviation="2" result="effect1_foregroundBlur_638_4575"></feGaussianBlur></filter><filter data-v-3817a430="" id="filter15_f_638_4575" x="18.8" y="66" width="23.2" height="55" filterUnits="userSpaceOnUse" color-interpolation-filters="sRGB"><feFlood data-v-3817a430="" flood-opacity="0" result="BackgroundImageFix"></feFlood><feBlend data-v-3817a430="" mode="normal" in="SourceGraphic" in2="BackgroundImageFix" result="shape"></feBlend><feGaussianBlur data-v-3817a430="" stdDeviation="3" result="effect1_foregroundBlur_638_4575"></feGaussianBlur></filter><filter data-v-3817a430="" id="filter16_f_638_4575" x="0.399902" y="66.5" width="20.7998" height="55" filterUnits="userSpaceOnUse" color-interpolation-filters="sRGB"><feFlood data-v-3817a430="" flood-opacity="0" result="BackgroundImageFix"></feFlood><feBlend data-v-3817a430="" mode="normal" in="SourceGraphic" in2="BackgroundImageFix" result="shape"></feBlend><feGaussianBlur data-v-3817a430="" stdDeviation="3" result="effect1_foregroundBlur_638_4575"></feGaussianBlur></filter><filter data-v-3817a430="" id="filter17_f_638_4575" x="-1" y="76" width="34" height="4" filterUnits="userSpaceOnUse" color-interpolation-filters="sRGB"><feFlood data-v-3817a430="" flood-opacity="0" result="BackgroundImageFix"></feFlood><feBlend data-v-3817a430="" mode="normal" in="SourceGraphic" in2="BackgroundImageFix" result="shape"></feBlend><feGaussianBlur data-v-3817a430="" stdDeviation="0.5" result="effect1_foregroundBlur_638_4575"></feGaussianBlur></filter><filter data-v-3817a430="" id="filter18_f_638_4575" x="26.3999" y="70" width="12.1738" height="51" filterUnits="userSpaceOnUse" color-interpolation-filters="sRGB"><feFlood data-v-3817a430="" flood-opacity="0" result="BackgroundImageFix"></feFlood><feBlend data-v-3817a430="" mode="normal" in="SourceGraphic" in2="BackgroundImageFix" result="shape"></feBlend><feGaussianBlur data-v-3817a430="" stdDeviation="2" result="effect1_foregroundBlur_638_4575"></feGaussianBlur></filter><linearGradient data-v-3817a430="" id="paint0_linear_638_4575" x1="-2.72385e-08" y1="5.6837" x2="0.829666" y2="5.78605" gradientUnits="userSpaceOnUse"><stop data-v-3817a430="" offset="0.411022" stop-color="#5B5B5B" stop-opacity="0"></stop><stop data-v-3817a430="" offset="1" stop-opacity="0.22"></stop></linearGradient><linearGradient data-v-3817a430="" id="paint1_linear_638_4575" x1="15.5833" y1="7.14488" x2="16.4129" y2="7.24724" gradientUnits="userSpaceOnUse"><stop data-v-3817a430="" offset="0.411022" stop-color="#5B5B5B" stop-opacity="0"></stop><stop data-v-3817a430="" offset="1" stop-opacity="0.22"></stop></linearGradient><linearGradient data-v-3817a430="" id="paint2_linear_638_4575" x1="1.3335" y1="76" x2="30.6668" y2="76" gradientUnits="userSpaceOnUse"><stop data-v-3817a430="" stop-color="#353535"></stop><stop data-v-3817a430="" offset="0.0933156" stop-color="#454545"></stop><stop data-v-3817a430="" offset="0.183603" stop-color="#7B7B7B"></stop><stop data-v-3817a430="" offset="0.243794" stop-color="#8F8F8F"></stop><stop data-v-3817a430="" offset="0.574565" stop-color="#404040"></stop><stop data-v-3817a430="" offset="0.842347" stop-color="#4A4A4A"></stop><stop data-v-3817a430="" offset="0.900209" stop-color="#434343"></stop><stop data-v-3817a430="" offset="1" stop-color="#3F3D3D"></stop></linearGradient><radialGradient data-v-3817a430="" id="paint3_angular_638_4575" cx="0" cy="0" r="1" gradientUnits="userSpaceOnUse" gradientTransform="translate(14.6667 64) rotate(90) scale(9 65.9993)"><stop data-v-3817a430="" offset="0.0127798" stop-color="#C6C6C6"></stop><stop data-v-3817a430="" offset="0.0215281" stop-color="#B8B5B5"></stop><stop data-v-3817a430="" offset="0.0383468" stop-color="#868686"></stop><stop data-v-3817a430="" offset="0.955282" stop-color="#818181"></stop><stop data-v-3817a430="" offset="0.971235" stop-color="#A4A4A4"></stop><stop data-v-3817a430="" offset="0.991884" stop-color="#626262"></stop></radialGradient><linearGradient data-v-3817a430="" id="paint4_linear_638_4575" x1="8" y1="29" x2="23.3333" y2="29" gradientUnits="userSpaceOnUse"><stop data-v-3817a430="" stop-color="#9F9F9F"></stop><stop data-v-3817a430="" offset="0.188721" stop-color="#555554"></stop><stop data-v-3817a430="" offset="0.518635" stop-color="#3F3E3D"></stop><stop data-v-3817a430="" offset="0.852135" stop-color="#A5A4A4"></stop><stop data-v-3817a430="" offset="1" stop-color="#3F3E3D"></stop></linearGradient><radialGradient data-v-3817a430="" id="paint5_angular_638_4575" cx="0" cy="0" r="1" gradientUnits="userSpaceOnUse" gradientTransform="translate(16 21.5) rotate(100.072) scale(1.90485 6.60362)"><stop data-v-3817a430="" offset="0.00320277" stop-color="#A4A4A4"></stop><stop data-v-3817a430="" offset="0.0228938" stop-color="#B8B5B5"></stop><stop data-v-3817a430="" offset="0.48232" stop-color="#969494"></stop><stop data-v-3817a430="" offset="0.958736" stop-color="#757373"></stop></radialGradient><linearGradient data-v-3817a430="" id="paint6_linear_638_4575" x1="1.3335" y1="76" x2="30.6668" y2="76" gradientUnits="userSpaceOnUse"><stop data-v-3817a430="" stop-color="#838383"></stop><stop data-v-3817a430="" offset="0.112932" stop-color="#9E9C9C"></stop><stop data-v-3817a430="" offset="0.250666" stop-color="#B5B5B5"></stop><stop data-v-3817a430="" offset="0.368407" stop-color="#9E9E9E"></stop><stop data-v-3817a430="" offset="0.586116" stop-color="#6D6B6B"></stop><stop data-v-3817a430="" offset="0.868249" stop-color="#979797"></stop><stop data-v-3817a430="" offset="1" stop-color="#898989"></stop></linearGradient></defs></svg>