<svg data-v-029851c4="" width="68" height="123" viewBox="0 0 68 123" fill="none" xmlns="http://www.w3.org/2000/svg"><g filter="url(#filter0_d_483_4880)"><path d="M0 38.3546L2 36.7858H56L58 38.3546V39.6097H0V38.3546Z" fill="#6A6666"></path><path d="M0.548584 38.339L2.50465 36.9261H55.3183L57.2744 38.339V39.4693H0.548584V38.339Z" fill="#2D2A2A"></path><path d="M2 13.802C2 6.76871 7.22168 0.859461 14.2426 0.44244C18.4281 0.19383 23.4659 -2.90966e-10 29 0C35.3293 3.32777e-10 41.0095 0.253537 45.5079 0.552594C51.5232 0.952484 56 6.01696 56 12.0455V115H2V13.802Z" fill="#FFDAA4"></path><mask id="mask0_483_4880" maskUnits="userSpaceOnUse" x="2" y="0" width="54" height="115" style="mask-type: alpha;"><path d="M2 13.802C2 6.76871 7.22168 0.859461 14.2426 0.44244C18.4281 0.19383 23.4659 -2.90966e-10 29 0C35.3293 3.32777e-10 41.0095 0.253537 45.5079 0.552594C51.5232 0.952484 56 6.01696 56 12.0455V115H2V13.802Z" fill="#E0796D"></path></mask><g mask="url(#mask0_483_4880)"><g filter="url(#filter1_f_483_4880)"><path d="M1 11.092C1 5.14813 5.35374 0.129625 11.2795 -0.332736C15.9236 -0.695084 21.8612 -1.00879 28.5 -1.00879C35.1388 -1.00879 41.0764 -0.695084 45.7205 -0.332736C51.6463 0.129624 56 5.14815 56 11.092V133.158H1V11.092Z" stroke="#EDC79B" stroke-width="4"></path></g><g filter="url(#filter2_f_483_4880)"><path d="M5 11.8085C5 5.94053 9.25155 0.961604 15.1018 0.506378C18.7306 0.224007 23.1407 -3.26228e-10 28 0C32.8593 3.26228e-10 37.2694 0.224007 40.8982 0.506378C46.7485 0.961604 51 5.94052 51 11.8085V125.088H5V11.8085Z" stroke="white" stroke-opacity="0.24" stroke-width="4"></path></g><g filter="url(#filter3_f_483_4880)"><path d="M36 0H56V13.114H43.5C39.3579 13.114 36 9.75617 36 5.61403V0Z" fill="url(#paint0_linear_483_4880)" fill-opacity="0.7"></path></g></g><g filter="url(#filter4_f_483_4880)"><path d="M2.22704 36.2633L55.7729 35.8243V38.568C55.7729 38.568 44.9033 46.1241 29.0337 46.1241C13.1641 46.1241 2.22705 38.537 2.22705 38.537L2.22704 36.2633Z" fill="url(#paint1_linear_483_4880)"></path></g><path d="M0 38.3333C23.5 39.3421 35 39.3421 58 38.3333V115H0V38.3333Z" fill="url(#paint2_linear_483_4880)"></path><mask id="mask1_483_4880" maskUnits="userSpaceOnUse" x="0" y="38" width="58" height="77" style="mask-type: alpha;"><path d="M0 38.3333C23.5 39.3421 35 39.3421 58 38.3333V115H0V38.3333Z" fill="#F4F4F4"></path></mask><g mask="url(#mask1_483_4880)"><g opacity="0.2" filter="url(#filter5_f_483_4880)"><path d="M-2 119.028C-2 119.028 16.7727 79.5991 28 64.5471C39.2273 49.4952 54.9471 38.4299 54.9471 38.4299L-2 34.2911V119.028Z" fill="url(#paint3_linear_483_4880)"></path></g><path d="M53.5158 97.037C53.8969 97.2275 54.2633 97.4767 54.615 97.7845C54.9668 98.0922 55.2819 98.4513 55.5603 98.8617C55.8241 99.2574 56.0366 99.7044 56.1979 100.203C56.3591 100.686 56.4397 101.207 56.4397 101.764C56.4397 102.511 56.3224 103.178 56.0879 103.764C55.8534 104.336 55.5164 104.819 55.0767 105.215C54.637 105.611 54.1094 105.911 53.4938 106.116C52.8636 106.322 52.1675 106.424 51.4053 106.424C50.2915 106.424 49.2729 106.27 48.3496 105.963C47.4116 105.64 46.6055 105.208 45.9313 104.665C45.2572 104.123 44.7369 103.493 44.3705 102.775C43.9894 102.057 43.7989 101.302 43.7989 100.51C43.7989 99.7484 43.9161 99.0962 44.1506 98.5539C44.3851 98.0116 44.7076 97.572 45.1179 97.2349C45.5136 96.8831 45.9826 96.634 46.5249 96.4874C47.0672 96.3262 47.6461 96.2456 48.2616 96.2456C48.5694 96.2456 48.9944 96.2749 49.5367 96.3335C50.079 96.3921 50.6139 96.4874 51.1415 96.6193L51.1415 102.291C51.2148 102.306 51.2734 102.313 51.3174 102.313C51.3467 102.313 51.376 102.313 51.4053 102.313C51.7424 102.313 52.0209 102.233 52.2407 102.071C52.4606 101.895 52.5705 101.639 52.5705 101.302C52.5705 100.994 52.4679 100.73 52.2627 100.51C52.0429 100.291 51.823 100.115 51.6032 99.9829L53.5158 97.037ZM48.6354 99.9829C48.5621 99.9682 48.4815 99.9609 48.3935 99.9609C48.3056 99.9462 48.225 99.9389 48.1517 99.9389C47.8146 99.9389 47.5508 99.9975 47.3603 100.115C47.1698 100.217 47.0745 100.393 47.0745 100.642C47.0745 100.921 47.2211 101.177 47.5142 101.412C47.8073 101.632 48.181 101.778 48.6354 101.852L48.6354 99.9829ZM45.9093 89.9321C45.2645 89.6389 44.7588 89.2945 44.3924 88.8988C44.026 88.4884 43.8428 87.9975 43.8428 87.4259C43.8428 87.2647 43.8575 87.1108 43.8868 86.9642C43.9015 86.8177 43.9235 86.7077 43.9528 86.6345L48.3935 87.6237C48.3496 87.741 48.3203 87.8729 48.3056 88.0194C48.2763 88.166 48.2616 88.3492 48.2616 88.569C48.2616 89.0673 48.4522 89.4924 48.8332 89.8441C49.2143 90.1812 49.6833 90.401 50.2402 90.5036L56 91.5149L56 95.9117L47.0305 94.3289C46.796 94.2849 46.5469 94.2409 46.2831 94.197C46.0046 94.153 45.7408 94.109 45.4916 94.065C45.2278 94.0211 44.986 93.9844 44.7662 93.9551C44.5463 93.9258 44.3705 93.9038 44.2386 93.8892L44.2386 89.8441C44.4437 89.8588 44.7222 89.8808 45.074 89.9101C45.411 89.9394 45.6895 89.9687 45.9093 89.998L45.9093 89.9321ZM48.6354 81.9268C48.5914 81.9121 48.5328 81.9048 48.4595 81.9048C48.3716 81.8901 48.3056 81.8828 48.2616 81.8828C48.0564 81.8828 47.8806 81.9414 47.734 82.0587C47.5728 82.1759 47.4922 82.3885 47.4922 82.6962C47.4922 83.1066 47.5801 83.495 47.756 83.8614C47.9172 84.2278 48.0858 84.5356 48.2616 84.7847L45.4477 86.3456C44.9494 85.774 44.5537 85.1071 44.2605 84.345C43.9528 83.5829 43.7989 82.8061 43.7989 82.0147C43.7989 80.5491 44.1579 79.4939 44.8761 78.849C45.5796 78.2042 46.5249 77.8817 47.712 77.8817C48.0345 77.8817 48.3789 77.9037 48.7453 77.9477C49.097 77.977 49.4634 78.0283 49.8445 78.1016L53.8236 78.8051C53.9995 78.8344 54.1973 78.8637 54.4172 78.893C54.6223 78.9223 54.8348 78.9516 55.0547 78.9809C55.2599 78.9956 55.4504 79.0102 55.6263 79.0249C55.7875 79.0396 55.9121 79.0469 56 79.0469L56 82.6742C55.8534 82.6742 55.6776 82.6669 55.4724 82.6523C55.2525 82.6229 55.0693 82.5936 54.9228 82.5643L54.9228 82.6303C55.3038 82.8355 55.6409 83.1432 55.934 83.5536C56.2125 83.9493 56.3517 84.4769 56.3517 85.1365C56.3517 85.4442 56.2931 85.7667 56.1759 86.1037C56.0586 86.4262 55.8754 86.7266 55.6263 87.0051C55.3771 87.2689 55.062 87.4887 54.681 87.6646C54.2852 87.8405 53.8236 87.9284 53.296 87.9284C52.4899 87.9284 51.7937 87.7965 51.2075 87.5327C50.6212 87.2689 50.1376 86.8952 49.7565 86.4115C49.3755 85.9132 49.097 85.3197 48.9212 84.6308C48.7306 83.9273 48.6354 83.1506 48.6354 82.3005L48.6354 81.9268ZM51.3174 82.6523C51.3174 83.1066 51.4053 83.4803 51.5812 83.7734C51.7571 84.0666 52.0062 84.2131 52.3287 84.2131C52.827 84.2131 53.0761 84.0006 53.0761 83.5756C53.0761 83.2385 52.9589 82.9674 52.7244 82.7622C52.4752 82.557 52.1601 82.4178 51.7791 82.3445L51.3174 82.2565L51.3174 82.6523ZM47.9319 69.8462C47.7267 70.0807 47.5581 70.3445 47.4262 70.6377C47.2797 70.9308 47.2064 71.2459 47.2064 71.583C47.2064 71.7882 47.2504 71.9787 47.3383 72.1546C47.4262 72.3304 47.5875 72.4184 47.8219 72.4184C47.9832 72.4184 48.1224 72.3451 48.2396 72.1985C48.3422 72.0373 48.5035 71.7222 48.7233 71.2532C48.8699 70.9454 49.0457 70.645 49.2509 70.3519C49.4414 70.0441 49.6686 69.773 49.9324 69.5385C50.1962 69.2893 50.504 69.0915 50.8557 68.9449C51.1928 68.7983 51.5739 68.725 51.9989 68.725C52.849 68.725 53.5524 68.8863 54.1094 69.2087C54.6663 69.5165 55.1133 69.9122 55.4504 70.3958C55.7728 70.8648 56 71.3778 56.1319 71.9347C56.2785 72.477 56.3517 72.9826 56.3517 73.4516C56.3517 74.287 56.2198 75.1004 55.956 75.8918C55.6776 76.6686 55.2965 77.3208 54.8129 77.8484L52.0429 75.5841C52.336 75.2909 52.5632 74.9612 52.7244 74.5948C52.8709 74.2284 52.9442 73.8986 52.9442 73.6055C52.9442 73.3857 52.9003 73.1951 52.8123 73.0339C52.7244 72.858 52.5778 72.7701 52.3726 72.7701C52.1821 72.7701 52.0136 72.8727 51.867 73.0779C51.7204 73.2831 51.5299 73.6348 51.2954 74.1331C51.1489 74.4409 50.9876 74.734 50.8118 75.0125C50.6359 75.2909 50.4307 75.5401 50.1962 75.7599C49.9471 75.9798 49.6613 76.1556 49.3388 76.2875C49.0164 76.4048 48.6427 76.4634 48.2177 76.4634C47.3823 76.4634 46.6861 76.2949 46.1292 75.9578C45.5723 75.6207 45.1326 75.203 44.8101 74.7047C44.4731 74.2064 44.2386 73.6715 44.1067 73.0999C43.9601 72.5283 43.8868 72.0007 43.8868 71.517C43.8868 70.7842 44.0041 70.0661 44.2386 69.3626C44.4731 68.6444 44.7735 68.0729 45.1399 67.6478L47.9319 69.8462ZM53.5158 58.1356C53.8969 58.3262 54.2633 58.5753 54.615 58.8831C54.9667 59.1909 55.2819 59.5499 55.5603 59.9603C55.8241 60.356 56.0366 60.803 56.1979 61.3013C56.3591 61.785 56.4397 62.3053 56.4397 62.8622C56.4397 63.6096 56.3224 64.2765 56.0879 64.8627C55.8534 65.4343 55.5164 65.918 55.0767 66.3137C54.637 66.7094 54.1094 67.0098 53.4938 67.215C52.8636 67.4202 52.1675 67.5228 51.4053 67.5228C50.2915 67.5228 49.2729 67.3689 48.3496 67.0611C47.4116 66.7387 46.6055 66.3064 45.9313 65.7641C45.2571 65.2218 44.7369 64.5916 44.3705 63.8735C43.9894 63.1553 43.7989 62.4005 43.7989 61.6091C43.7989 60.847 43.9161 60.1948 44.1506 59.6525C44.3851 59.1103 44.7075 58.6706 45.1179 58.3335C45.5136 57.9817 45.9826 57.7326 46.5249 57.586C47.0672 57.4248 47.6461 57.3442 48.2616 57.3442C48.5694 57.3442 48.9944 57.3735 49.5367 57.4321C50.079 57.4908 50.6139 57.586 51.1415 57.7179L51.1415 63.3898C51.2148 63.4045 51.2734 63.4118 51.3174 63.4118C51.3467 63.4118 51.376 63.4118 51.4053 63.4118C51.7424 63.4118 52.0209 63.3312 52.2407 63.17C52.4606 62.9941 52.5705 62.7376 52.5705 62.4005C52.5705 62.0928 52.4679 61.8289 52.2627 61.6091C52.0429 61.3893 51.823 61.2134 51.6032 61.0815L53.5158 58.1356ZM48.6354 61.0815C48.5621 61.0668 48.4815 61.0595 48.3935 61.0595C48.3056 61.0448 48.225 61.0375 48.1517 61.0375C47.8146 61.0375 47.5508 61.0961 47.3603 61.2134C47.1698 61.316 47.0745 61.4919 47.0745 61.741C47.0745 62.0195 47.2211 62.276 47.5142 62.5104C47.8073 62.7303 48.181 62.8768 48.6354 62.9501L48.6354 61.0815ZM45.9093 51.0307C45.2645 50.7376 44.7588 50.3931 44.3924 49.9974C44.026 49.5871 43.8428 49.0961 43.8428 48.5245C43.8428 48.3633 43.8575 48.2094 43.8868 48.0628C43.9015 47.9163 43.9235 47.8064 43.9528 47.7331L48.3935 48.7224C48.3496 48.8396 48.3203 48.9715 48.3056 49.1181C48.2763 49.2646 48.2616 49.4478 48.2616 49.6677C48.2616 50.166 48.4522 50.591 48.8332 50.9427C49.2143 51.2798 49.6833 51.4997 50.2402 51.6023L56 52.6135L56 57.0103L47.0305 55.4275C46.796 55.3835 46.5469 55.3395 46.2831 55.2956C46.0046 55.2516 45.7408 55.2076 45.4916 55.1637C45.2278 55.1197 44.986 55.0831 44.7662 55.0538C44.5463 55.0244 44.3705 55.0025 44.2386 54.9878L44.2386 50.9427C44.4437 50.9574 44.7222 50.9794 45.0739 51.0087C45.411 51.038 45.6895 51.0673 45.9093 51.0966L45.9093 51.0307Z" fill="url(#paint4_linear_483_4880)"></path><g filter="url(#filter6_f_483_4880)"><rect x="-3" y="37.3174" width="9.05149" height="77.6754" fill="white" fill-opacity="0.1"></rect></g><g filter="url(#filter7_f_483_4880)"><rect x="52.9268" y="37.3246" width="5.07335" height="77.6754" fill="#1D1D1D" fill-opacity="0.27"></rect></g><path d="M0 36.8475H58V38.3607C58 38.3607 51.8195 39.3694 29 39.3694C6.1805 39.3694 0 38.3452 0 38.3452V36.8475Z" fill="url(#paint5_linear_483_4880)" fill-opacity="0.84"></path></g></g><defs><filter id="filter0_d_483_4880" x="0" y="0" width="68" height="123" filterUnits="userSpaceOnUse" color-interpolation-filters="sRGB"><feFlood flood-opacity="0" result="BackgroundImageFix"></feFlood><feColorMatrix in="SourceAlpha" type="matrix" values="0 0 0 0 0 0 0 0 0 0 0 0 0 0 0 0 0 0 127 0" result="hardAlpha"></feColorMatrix><feOffset dx="8" dy="6"></feOffset><feGaussianBlur stdDeviation="1"></feGaussianBlur><feComposite in2="hardAlpha" operator="out"></feComposite><feColorMatrix type="matrix" values="0 0 0 0 0 0 0 0 0 0 0 0 0 0 0 0 0 0 0.1 0"></feColorMatrix><feBlend mode="normal" in2="BackgroundImageFix" result="effect1_dropShadow_483_4880"></feBlend><feBlend mode="normal" in="SourceGraphic" in2="effect1_dropShadow_483_4880" result="shape"></feBlend></filter><filter id="filter1_f_483_4880" x="-2" y="-4.00879" width="61" height="140.167" filterUnits="userSpaceOnUse" color-interpolation-filters="sRGB"><feFlood flood-opacity="0" result="BackgroundImageFix"></feFlood><feBlend mode="normal" in="SourceGraphic" in2="BackgroundImageFix" result="shape"></feBlend><feGaussianBlur stdDeviation="0.5" result="effect1_foregroundBlur_483_4880"></feGaussianBlur></filter><filter id="filter2_f_483_4880" x="-2" y="-7" width="60" height="139.088" filterUnits="userSpaceOnUse" color-interpolation-filters="sRGB"><feFlood flood-opacity="0" result="BackgroundImageFix"></feFlood><feBlend mode="normal" in="SourceGraphic" in2="BackgroundImageFix" result="shape"></feBlend><feGaussianBlur stdDeviation="2.5" result="effect1_foregroundBlur_483_4880"></feGaussianBlur></filter><filter id="filter3_f_483_4880" x="35" y="-1" width="22" height="15.114" filterUnits="userSpaceOnUse" color-interpolation-filters="sRGB"><feFlood flood-opacity="0" result="BackgroundImageFix"></feFlood><feBlend mode="normal" in="SourceGraphic" in2="BackgroundImageFix" result="shape"></feBlend><feGaussianBlur stdDeviation="0.5" result="effect1_foregroundBlur_483_4880"></feGaussianBlur></filter><filter id="filter4_f_483_4880" x="1.72705" y="35.3243" width="54.5459" height="11.2997" filterUnits="userSpaceOnUse" color-interpolation-filters="sRGB"><feFlood flood-opacity="0" result="BackgroundImageFix"></feFlood><feBlend mode="normal" in="SourceGraphic" in2="BackgroundImageFix" result="shape"></feBlend><feGaussianBlur stdDeviation="0.25" result="effect1_foregroundBlur_483_4880"></feGaussianBlur></filter><filter id="filter5_f_483_4880" x="-3" y="33.2911" width="58.947" height="86.7368" filterUnits="userSpaceOnUse" color-interpolation-filters="sRGB"><feFlood flood-opacity="0" result="BackgroundImageFix"></feFlood><feBlend mode="normal" in="SourceGraphic" in2="BackgroundImageFix" result="shape"></feBlend><feGaussianBlur stdDeviation="0.5" result="effect1_foregroundBlur_483_4880"></feGaussianBlur></filter><filter id="filter6_f_483_4880" x="-5" y="35.3174" width="13.0515" height="81.6754" filterUnits="userSpaceOnUse" color-interpolation-filters="sRGB"><feFlood flood-opacity="0" result="BackgroundImageFix"></feFlood><feBlend mode="normal" in="SourceGraphic" in2="BackgroundImageFix" result="shape"></feBlend><feGaussianBlur stdDeviation="1" result="effect1_foregroundBlur_483_4880"></feGaussianBlur></filter><filter id="filter7_f_483_4880" x="51.9268" y="36.3246" width="7.07324" height="79.6754" filterUnits="userSpaceOnUse" color-interpolation-filters="sRGB"><feFlood flood-opacity="0" result="BackgroundImageFix"></feFlood><feBlend mode="normal" in="SourceGraphic" in2="BackgroundImageFix" result="shape"></feBlend><feGaussianBlur stdDeviation="0.5" result="effect1_foregroundBlur_483_4880"></feGaussianBlur></filter><linearGradient id="paint0_linear_483_4880" x1="45.4118" y1="1.19219" x2="40.6148" y2="8.88456" gradientUnits="userSpaceOnUse"><stop stop-color="#F2CB92"></stop><stop offset="0.755208" stop-color="#FFDAA4" stop-opacity="0.35"></stop></linearGradient><linearGradient id="paint1_linear_483_4880" x1="29" y1="35.8243" x2="29" y2="46.1241" gradientUnits="userSpaceOnUse"><stop stop-color="#F2AC79" stop-opacity="0"></stop><stop offset="0.33019" stop-color="#F2AC79"></stop></linearGradient><linearGradient id="paint2_linear_483_4880" x1="2" y1="39.3421" x2="58.6296" y2="114.526" gradientUnits="userSpaceOnUse"><stop stop-color="#212121"></stop><stop offset="1" stop-color="#363636"></stop></linearGradient><linearGradient id="paint3_linear_483_4880" x1="13.5" y1="44.8832" x2="27.9098" y2="76.2466" gradientUnits="userSpaceOnUse"><stop stop-color="#F2F2F2"></stop><stop offset="1" stop-color="#F2F2F2" stop-opacity="0"></stop></linearGradient><linearGradient id="paint4_linear_483_4880" x1="49" y1="50.943" x2="49" y2="106.93" gradientUnits="userSpaceOnUse"><stop stop-color="#444546"></stop><stop offset="1" stop-color="#6B6C6D" stop-opacity="0.28"></stop></linearGradient><linearGradient id="paint5_linear_483_4880" x1="0.523007" y1="39.0512" x2="58.3173" y2="38.6487" gradientUnits="userSpaceOnUse"><stop stop-color="#464646"></stop><stop offset="0.478771" stop-color="#FCFCFC" stop-opacity="0.4"></stop><stop offset="1" stop-color="#4E4E4E"></stop></linearGradient></defs></svg>